<?xml version="1.0"?>
<svg xmlns="http://www.w3.org/2000/svg" viewBox="0 0 50 50">
    <path style="text-indent:0;text-align:start;line-height:normal;text-transform:none;block-progression:tb;-inkscape-font-specification:Bitstream Vera Sans" d="M 2.8125 2 A 1.0001 1.0001 0 0 0 2 3 L 2 9 A 1.0001 1.0001 0 0 0 2 9.03125 A 1.0001 1.0001 0 0 0 2 9.09375 A 1.0001 1.0001 0 0 0 2 9.125 A 1.0001 1.0001 0 0 0 2.03125 9.1875 A 1.0001 1.0001 0 0 0 2.03125 9.21875 A 1.0001 1.0001 0 0 0 2.03125 9.28125 A 1.0001 1.0001 0 0 0 2.0625 9.3125 A 1.0001 1.0001 0 0 0 2.09375 9.375 A 1.0001 1.0001 0 0 0 2.09375 9.40625 A 1.0001 1.0001 0 0 0 2.125 9.46875 A 1.0001 1.0001 0 0 0 2.125 9.5 A 1.0001 1.0001 0 0 0 2.1875 9.5625 A 1.0001 1.0001 0 0 0 2.1875 9.59375 A 1.0001 1.0001 0 0 0 2.375 9.78125 L 9 17.375 L 9 47 A 1.0001 1.0001 0 0 0 10 48 L 40 48 A 1.0001 1.0001 0 0 0 41 47 L 41 17.375 L 47.65625 9.75 A 1.0001 1.0001 0 0 0 47.75 9.65625 A 1.0001 1.0001 0 0 0 47.78125 9.625 A 1.0001 1.0001 0 0 0 47.8125 9.5625 A 1.0001 1.0001 0 0 0 47.84375 9.53125 A 1.0001 1.0001 0 0 0 47.90625 9.46875 A 1.0001 1.0001 0 0 0 47.90625 9.40625 A 1.0001 1.0001 0 0 0 47.9375 9.375 A 1.0001 1.0001 0 0 0 47.96875 9.21875 A 1.0001 1.0001 0 0 0 48 9.03125 A 1.0001 1.0001 0 0 0 48 8.90625 L 48 3 A 1.0001 1.0001 0 0 0 47 2 L 3 2 A 1.0001 1.0001 0 0 0 2.90625 2 A 1.0001 1.0001 0 0 0 2.8125 2 z M 4 4 L 46 4 L 46 8 L 4 8 L 4 4 z M 5.1875 10 L 44.8125 10 L 39.5625 16 L 10.4375 16 L 5.1875 10 z M 11 18 L 39 18 L 39 40 L 11 40 L 11 18 z M 11 42 L 39 42 L 39 46 L 11 46 L 11 42 z" overflow="visible" font-family="Bitstream Vera Sans"/>
</svg>
