<svg xmlns="http://www.w3.org/2000/svg" viewBox="0 0 50 50"><path style="text-indent:0;text-align:start;line-height:normal;text-transform:none;block-progression:tb;-inkscape-font-specification:Bitstream Vera Sans" d="M2.813 2A1 1 0 002 3v6a1 1 0 000 .031 1 1 0 000 .063 1 1 0 000 .031 1 1 0 00.031.063 1 1 0 000 .03 1 1 0 000 .063 1 1 0 00.031.031 1 1 0 00.032.063 1 1 0 000 .031 1 1 0 00.031.063 1 1 0 000 .031 1 1 0 00.063.063 1 1 0 000 .03 1 1 0 00.187.188L9 17.375V47a1 1 0 001 1h30a1 1 0 001-1V17.375l6.656-7.625a1 1 0 00.094-.094 1 1 0 00.031-.031 1 1 0 00.032-.063 1 1 0 00.03-.03 1 1 0 00.063-.063 1 1 0 000-.063 1 1 0 00.032-.031 1 1 0 00.03-.156A1 1 0 0048 9.03a1 1 0 000-.125V3a1 1 0 00-1-1H3a1 1 0 00-.094 0 1 1 0 00-.094 0zM4 4h42v4H4V4zm1.188 6h39.624l-5.25 6H10.439l-5.25-6zM11 18h28v22H11V18zm0 24h28v4H11v-4z" overflow="visible" font-family="Bitstream Vera Sans"/></svg>