<svg xmlns="http://www.w3.org/2000/svg" viewBox="0 0 50 50"><path style="text-indent:0;text-align:start;line-height:normal;text-transform:none;block-progression:tb;-inkscape-font-specification:Bitstream Vera Sans" d="M9.813 2A1 1 0 009 3v17a1 1 0 001 1h3v6h-3a1 1 0 00-.094 0 1 1 0 00-.094 0A1 1 0 009 28v19a1 1 0 001 1h30a1 1 0 001-1V28a1 1 0 00-1-1h-3v-6h3a1 1 0 001-1V3a1 1 0 00-1-1H10a1 1 0 00-.094 0 1 1 0 00-.094 0zM11 4h28v15H11V4zm4 17h6v6h-6v-6zm8 0h4v6h-4v-6zm6 0h6v6h-6v-6zm-18 8h28v11H11V29zm0 13h28v4H11v-4z"/></svg>