<?xml version="1.0"?>
<svg xmlns="http://www.w3.org/2000/svg" viewBox="0 0 50 50">
    <path style="text-indent:0;text-align:start;line-height:normal;text-transform:none;block-progression:tb;-inkscape-font-specification:Bitstream Vera Sans" d="M 9.8125 2 A 1.0001 1.0001 0 0 0 9 3 L 9 20 A 1.0001 1.0001 0 0 0 10 21 L 13 21 L 13 27 L 10 27 A 1.0001 1.0001 0 0 0 9.90625 27 A 1.0001 1.0001 0 0 0 9.8125 27 A 1.0001 1.0001 0 0 0 9 28 L 9 47 A 1.0001 1.0001 0 0 0 10 48 L 40 48 A 1.0001 1.0001 0 0 0 41 47 L 41 28 A 1.0001 1.0001 0 0 0 40 27 L 37 27 L 37 21 L 40 21 A 1.0001 1.0001 0 0 0 41 20 L 41 3 A 1.0001 1.0001 0 0 0 40 2 L 10 2 A 1.0001 1.0001 0 0 0 9.90625 2 A 1.0001 1.0001 0 0 0 9.8125 2 z M 11 4 L 39 4 L 39 19 L 11 19 L 11 4 z M 15 21 L 21 21 L 21 27 L 15 27 L 15 21 z M 23 21 L 27 21 L 27 27 L 23 27 L 23 21 z M 29 21 L 35 21 L 35 27 L 29 27 L 29 21 z M 11 29 L 39 29 L 39 40 L 11 40 L 11 29 z M 11 42 L 39 42 L 39 46 L 11 46 L 11 42 z"/>
</svg>
