<?xml version="1.0"?>
<svg xmlns="http://www.w3.org/2000/svg" viewBox="0 0 50 50">
    <path style="text-indent:0;text-align:start;line-height:normal;text-transform:none;block-progression:tb;-inkscape-font-specification:Bitstream Vera Sans" d="M 14.8125 2 A 1.0001 1.0001 0 0 0 14 3 L 14 47 A 1.0001 1.0001 0 0 0 15 48 L 35 48 A 1.0001 1.0001 0 0 0 36 47 L 36 3 A 1.0001 1.0001 0 0 0 35 2 L 15 2 A 1.0001 1.0001 0 0 0 14.90625 2 A 1.0001 1.0001 0 0 0 14.8125 2 z M 16 4 L 34 4 L 34 40 L 16 40 L 16 4 z M 25 9 C 24.448 9 24 9.448 24 10 L 24 34 C 24 34.552 24.448 35 25 35 C 25.552 35 26 34.552 26 34 L 26 10 C 26 9.448 25.552 9 25 9 z M 16 42 L 34 42 L 34 46 L 16 46 L 16 42 z" overflow="visible" font-family="Bitstream Vera Sans"/>
</svg>
