<?xml version="1.0"?>
<svg xmlns="http://www.w3.org/2000/svg" viewBox="0 0 50 50">
    <path style="text-indent:0;text-align:start;line-height:normal;text-transform:none;block-progression:tb;-inkscape-font-specification:Bitstream Vera Sans" d="M 14.8125 6 A 1.0001 1.0001 0 0 0 14 7 L 14 43 A 1.0001 1.0001 0 0 0 15 44 L 35 44 A 1.0001 1.0001 0 0 0 36 43 L 36 7 A 1.0001 1.0001 0 0 0 35 6 L 15 6 A 1.0001 1.0001 0 0 0 14.90625 6 A 1.0001 1.0001 0 0 0 14.8125 6 z M 16 8 L 34 8 L 34 36 L 16 36 L 16 8 z M 25 13 C 24.448 13 24 13.448 24 14 L 24 30 C 24 30.552 24.448 31 25 31 C 25.552 31 26 30.552 26 30 L 26 14 C 26 13.448 25.552 13 25 13 z M 16 38 L 34 38 L 34 42 L 26 42 L 26 41 C 26 40.448 25.552 40 25 40 C 24.448 40 24 40.448 24 41 L 24 42 L 16 42 L 16 38 z" overflow="visible" font-family="Bitstream Vera Sans"/>
</svg>
