<?xml version="1.0" encoding="UTF-8" standalone="no"?><!DOCTYPE svg PUBLIC "-//W3C//DTD SVG 1.1//EN" "http://www.w3.org/Graphics/SVG/1.1/DTD/svg11.dtd"><svg width="100%" height="100%" viewBox="0 0 24 24" version="1.1" xmlns="http://www.w3.org/2000/svg" xmlns:xlink="http://www.w3.org/1999/xlink" xml:space="preserve" xmlns:serif="http://www.serif.com/" style="fill-rule:evenodd;clip-rule:evenodd;stroke-linejoin:round;stroke-miterlimit:2;"><path d="M12,21l3.6,-4.8c-1,-0.75 -2.25,-1.2 -3.6,-1.2c-1.35,0 -2.6,0.45 -3.6,1.2l3.6,4.8Z" style="fill:#106ba3;"/><path d="M12,9c-2.7,0 -5.19,0.89 -7.2,2.4l1.8,2.4c1.5,-1.13 3.37,-1.8 5.4,-1.8c2.03,0 3.9,0.67 5.4,1.8l1.8,-2.4c-2.01,-1.51 -4.5,-2.4 -7.2,-2.4Z" style="fill:#404040;"/><path d="M12,3c-4.05,0 -7.79,1.34 -10.8,3.6l1.8,2.4c2.5,-1.88 5.62,-3 9,-3c3.38,0 6.5,1.12 9,3l1.8,-2.4c-3.01,-2.26 -6.75,-3.6 -10.8,-3.6Z" style="fill:#404040;"/></svg>