<?xml version="1.0" standalone="no"?> <!DOCTYPE svg PUBLIC "-//W3C//DTD SVG 1.0//EN" "http://www.w3.org/TR/2001/REC-SVG-20010904/DTD/svg10.dtd" > <svg xmlns="http://www.w3.org/2000/svg" width="100%" height="100%">
<defs >
<font id="Digital-7" horiz-adv-x="500" ><font-face
    font-family="Digital-7 Mono"
    units-per-em="1100"
    panose-1="2 0 0 0 0 0 0 0 0 0"
    ascent="800"
    descent="200"
    alphabetic="0" />
<missing-glyph d="M410 0H50Q10 10 0 50L80 80H380L410 0ZM380 640H81L1 670Q11 710 51 720H410L380 640ZM80 100L0 70V650L80 620V100ZM480 50Q470 10 430 0L400 80V640L430 720Q470 710 480 670V50Z" />
<glyph unicode=" " glyph-name="space" />
<glyph unicode="!" glyph-name="exclam" d="M270 350L290 330V160H210V290L270 350ZM210 430V640L240 720Q280 710 290 670V390L270 370L210 430ZM290 0H210V80H290V0Z" />
<glyph unicode="&quot;" glyph-name="quotedbl" d="M220 560L180 520L140 560V720H220V560ZM381 561L341 521L301 561V721H381V561Z" />
<glyph unicode="#" glyph-name="numbersign" d="M270 480L310 440L270 400H230L190 440L230 480H270ZM270 320L310 280L270 240H230L190 280L230 320H270ZM130 380L170 420L210 380V340L170 300L130 340V380ZM290 380L330 420L370 380V340L330 300L290 340V380ZM130
560L170 600L210 560V500L170 460L130 500V560ZM290 560L330 600L370 560V500L330 460L290 500V560ZM290 221L330 261L370 221V160L330 120L290 160V221ZM130 220L170 260L210 220V159L170 119L130 159V220ZM110 320L150 280L110 240H70L30 280L70 320H110ZM430
319L470 279L430 239H390L350 279L390 319H430ZM430 480L470 440L430 400H390L350 440L390 480H430ZM110 479L150 439L110 399H70L30 439L70 479H110Z" />
<glyph unicode="$" glyph-name="dollar" d="M380 400L420 360L380 320H120L80 360L120 400H380ZM440 350L460 330V50Q450 10 410 0L380 80V290L440 350ZM390 0H90Q50 10 40 50L120 80H360L390 0ZM120 620V430L60 370L40 390V650L120 620ZM121 640L41 670Q51 710
91 720H410Q450 710 460 670L380 640H121ZM220 750V800L260 840L300 800V750H220ZM220 430V610H300V430H220ZM220 110V290H300V110H220ZM300 -30V-80L260 -120L220 -80V-30H300Z" />
<glyph unicode="%" glyph-name="percent" d="M261 478L380 720Q440 720 460 680L306 370H261V478ZM239 242L120 0Q60 0 40 40L194 350H239V242ZM140 640H80L0 670Q10 710 50 720H170L140 640ZM80 620V560L50 480Q10 490 0 530V650L80 620ZM100 560H160L240 530Q230
490 190 480H70L100 560ZM160 580V640L190 720Q230 710 240 670V550L160 580ZM420 100V160L450 240Q490 230 500 190V70L420 100ZM400 160H340L260 190Q270 230 310 240H430L400 160ZM340 140V80L310 0Q270 10 260 50V170L340 140ZM360 80H420L500 50Q490 10 450
0H330L360 80Z" />
<glyph unicode="&amp;" glyph-name="ampersand" d="M380 400L420 360L380 320H120L80 360L120 400H380ZM440 350L460 330V100H410L380 130V290L440 350ZM480 0H90Q50 10 40 50L120 80H440L500 20L480 0ZM40 70V330L60 350L120 290V100L40 70ZM320 600H160L80 630Q90
670 130 680H350L320 600ZM160 580V470L100 410L80 430V610L160 580ZM340 470V600L370 680Q410 670 420 630V430L400 410L340 470ZM460 -20V-70L440 -90L380 -30V-20H460Z" />
<glyph unicode="&apos;" glyph-name="quotesingle" d="M300 560L260 520L220 560V720H300V560Z" />
<glyph unicode="(" glyph-name="parenleft" d="M250 640H140L100 680L140 720H250L290 680L250 640ZM60 370L40 390V620L90 670L120 640V430L60 370ZM290 40L250 0H140L100 40L140 80H250L290 40ZM120 290V80L90 50L40 100V330L60 350L120 290Z" />
<glyph unicode=")" glyph-name="parenright" d="M230 80H340L380 40L340 0H230L190 40L230 80ZM420 350L440 330V100L390 50L360 80V290L420 350ZM190 680L230 720H340L380 680L340 640H230L190 680ZM360 430V640L390 670L440 620V390L420 370L360 430Z" />
<glyph unicode="*" glyph-name="asterisk" d="M210 430V510L250 550L290 510V430L360 470L415 455L400 400L331 360L400 320L415 265L360 250L290 290V210L250 170L210 210V290L140 250L85 265L100 320L169 360L100 400L85 455L140 470L210 430Z" />
<glyph unicode="+" glyph-name="plus" d="M210 400V490L250 530L290 490V400H380L420 360L380 320H290V230L250 190L210 230V320H120L80 360L120 400H210Z" />
<glyph unicode="," glyph-name="comma" d="M290 -80L250 -120L210 -80V80H290V-80Z" />
<glyph unicode="-" glyph-name="hyphen" d="M380 400L420 360L380 320H120L80 360L120 400H380Z" />
<glyph unicode="." glyph-name="period" d="M290 0H210V80H290V0Z" />
<glyph unicode="/" glyph-name="slash" d="M261 478L380 720Q440 720 460 680L306 370H261V478ZM239 242L120 0Q60 0 40 40L194 350H239V242Z" />
<glyph unicode="0" glyph-name="zero" d="M440 350L460 330V50Q450 10 410 0L380 80V290L440 350ZM390 0H90Q50 10 40 50L120 80H360L390 0ZM40 70V330L60 350L120 290V100L40 70ZM360 640H121L41 670Q51 710 91 720H390L360 640ZM120 620V430L60 370L40 390V650L120
620ZM380 430V640L410 720Q450 710 460 670V390L440 370L380 430Z" />
<glyph unicode="1" glyph-name="one" d="M440 350L460 330V50Q450 10 410 0L380 80V290L440 350ZM380 430V640L410 720Q450 710 460 670V390L440 370L380 430Z" />
<glyph unicode="2" glyph-name="two" d="M380 400L420 360L380 320H120L80 360L120 400H380ZM420 0H90Q50 10 40 50L120 80H390L420 0ZM40 70V330L60 350L120 290V100L40 70ZM360 640H121L41 670Q51 710 91 720H390L360 640ZM380 430V640L410 720Q450 710 460
670V390L440 370L380 430Z" />
<glyph unicode="3" glyph-name="three" d="M380 400L420 360L380 320H120L80 360L120 400H380ZM440 350L460 330V50Q450 10 410 0L380 80V290L440 350ZM390 0H90Q50 10 40 50L120 80H360L390 0ZM360 640H121L41 670Q51 710 91 720H390L360 640ZM380 430V640L410
720Q450 710 460 670V390L440 370L380 430Z" />
<glyph unicode="4" glyph-name="four" d="M380 400L420 360L380 320H120L80 360L120 400H380ZM440 350L460 330V50Q450 10 410 0L380 80V290L440 350ZM120 650V430L60 370L40 390V680L120 650ZM380 430V640L410 720Q450 710 460 670V390L440 370L380 430Z" />
<glyph unicode="5" glyph-name="five" d="M380 400L420 360L380 320H120L80 360L120 400H380ZM440 350L460 330V50Q450 10 410 0L380 80V290L440 350ZM390 0H90Q50 10 40 50L120 80H360L390 0ZM390 640H121L41 670Q51 710 91 720H420L390 640ZM120 620V430L60
370L40 390V650L120 620Z" />
<glyph unicode="6" glyph-name="six" d="M380 400L420 360L380 320H120L80 360L120 400H380ZM440 350L460 330V50Q450 10 410 0L380 80V290L440 350ZM390 0H90Q50 10 40 50L120 80H360L390 0ZM40 70V330L60 350L120 290V100L40 70ZM390 640H121L41 670Q51 710
91 720H420L390 640ZM120 620V430L60 370L40 390V650L120 620Z" />
<glyph unicode="7" glyph-name="seven" d="M440 350L460 330V50Q450 10 410 0L380 80V290L440 350ZM360 640H121L41 670Q51 710 91 720H390L360 640ZM120 620V430L60 370L40 390V650L120 620ZM380 430V640L410 720Q450 710 460 670V390L440 370L380 430Z" />
<glyph unicode="8" glyph-name="eight" d="M380 400L420 360L380 320H120L80 360L120 400H380ZM440 350L460 330V50Q450 10 410 0L380 80V290L440 350ZM390 0H90Q50 10 40 50L120 80H360L390 0ZM40 70V330L60 350L120 290V100L40 70ZM360 640H121L41 670Q51 710
91 720H390L360 640ZM120 620V430L60 370L40 390V650L120 620ZM380 430V640L410 720Q450 710 460 670V390L440 370L380 430Z" />
<glyph unicode="9" glyph-name="nine" d="M380 400L420 360L380 320H120L80 360L120 400H380ZM440 350L460 330V50Q450 10 410 0L380 80V290L440 350ZM390 0H90Q50 10 40 50L120 80H360L390 0ZM360 640H121L41 670Q51 710 91 720H390L360 640ZM120 620V430L60
370L40 390V650L120 620ZM380 430V640L410 720Q450 710 460 670V390L440 370L380 430Z" />
<glyph unicode=":" glyph-name="colon" d="M290 160H210V240H290V160ZM290 480H210V560H290V480Z" />
<glyph unicode=";" glyph-name="semicolon" d="M290 480H210V560H290V480ZM290 -80L250 -120L210 -80V80H290V-80Z" />
<glyph unicode="&lt;" glyph-name="less" d="M210 370H100L300 570H340L370 531L210 370ZM370 189L340 150H300L100 350H210L370 189Z" />
<glyph unicode="=" glyph-name="equal" d="M380 480L420 440L380 400H120L80 440L120 480H380ZM380 319L420 279L380 239H120L80 279L120 319H380Z" />
<glyph unicode="&gt;" glyph-name="greater" d="M100 531L130 570H170L370 370H260L100 531ZM260 350H370L170 150H130L100 189L260 350Z" />
<glyph unicode="?" glyph-name="question" d="M380 400L420 360L380 320H120L80 360L120 400H380ZM40 160V330L60 350L120 290V160H40ZM360 640H121L41 670Q51 710 91 720H390L360 640ZM380 430V640L410 720Q450 710 460 670V390L440 370L380 430ZM120 0H40V80H120V0Z" />
<glyph unicode="@" glyph-name="at" d="M440 350L460 330V210Q450 170 410 160L380 240V290L440 350ZM390 0H90Q50 10 40 50L120 80H360L390 0ZM40 70V330L60 350L120 290V100L40 70ZM360 640H121L41 670Q51 710 91 720H390L360 640ZM120 620V430L60 370L40 390V650L120
620ZM380 430V640L410 720Q450 710 460 670V390L440 370L380 430ZM390 160L250 159Q210 169 200 209L280 240H360L390 160ZM200 230V330L220 350L280 290V260L200 230ZM280 460V430L220 370L200 390V490L280 460ZM360 480H280L200 511Q210 551 250 561L360 560V480Z"
/>
<glyph unicode="A" glyph-name="A" d="M380 400L420 360L380 320H120L80 360L120 400H380ZM440 350L460 330V50Q450 10 410 0L380 80V290L440 350ZM360 640H121L41 670Q51 710 91 720H390L360 640ZM120 620V430L60 370L40 390V650L120 620ZM380 430V640L410 720Q450
710 460 670V390L440 370L380 430ZM120 290V80L90 0Q50 10 40 50V330L60 350L120 290Z" />
<glyph unicode="B" glyph-name="B" d="M380 400L420 360L380 320H120L80 360L120 400H380ZM40 70V330L60 350L120 290V100L40 70ZM360 640H120L40 670V720H360L400 680L360 640ZM120 620V430L60 370L40 390V650L120 620ZM380 430V640L410 670L460 620V390L440
370L380 430ZM440 350L460 330V100L410 50L380 80V290L440 350ZM399 40L359 0H40V50L120 80H359L399 40Z" />
<glyph unicode="C" glyph-name="C" d="M420 0H90Q50 10 40 50L120 80H390L420 0ZM40 70V330L60 350L120 290V100L40 70ZM390 640H121L41 670Q51 710 91 720H420L390 640ZM120 620V430L60 370L40 390V650L120 620Z" />
<glyph unicode="D" glyph-name="D" d="M40 70V330L60 350L120 290V100L40 70ZM360 640H120L40 670V720H360L400 680L360 640ZM120 620V430L60 370L40 390V650L120 620ZM380 430V640L410 670L460 620V390L440 370L380 430ZM440 350L460 330V100L410 50L380 80V290L440
350ZM399 40L359 0H40V50L120 80H359L399 40Z" />
<glyph unicode="E" glyph-name="E" d="M380 400L420 360L380 320H120L80 360L120 400H380ZM420 0H90Q50 10 40 50L120 80H390L420 0ZM40 70V330L60 350L120 290V100L40 70ZM390 640H121L41 670Q51 710 91 720H420L390 640ZM120 620V430L60 370L40 390V650L120 620Z" />
<glyph unicode="F" glyph-name="F" d="M380 400L420 360L380 320H120L80 360L120 400H380ZM390 640H121L41 670Q51 710 91 720H420L390 640ZM120 620V430L60 370L40 390V650L120 620ZM120 290V80L90 0Q50 10 40 50V330L60 350L120 290Z" />
<glyph unicode="G" glyph-name="G" d="M380 400L420 360L380 320H290L250 360L290 400H380ZM440 350L460 330V50Q450 10 410 0L380 80V290L440 350ZM390 0H90Q50 10 40 50L120 80H360L390 0ZM40 70V330L60 350L120 290V100L40 70ZM390 640H121L41 670Q51 710 91
720H420L390 640ZM120 620V430L60 370L40 390V650L120 620Z" />
<glyph unicode="H" glyph-name="H" d="M380 400L420 360L380 320H120L80 360L120 400H380ZM440 350L460 330V50Q450 10 410 0L380 80V290L440 350ZM380 430V640L410 720Q450 710 460 670V390L440 370L380 430ZM120 290V80L90 0Q50 10 40 50V330L60 350L120 290ZM60
360L40 380V660Q50 700 90 710L120 630V420L60 360Z" />
<glyph unicode="I" glyph-name="I" d="M200 430V640L230 720Q270 710 280 670V390L260 370L200 430ZM260 360L280 340V60Q270 20 230 10L200 90V300L260 360Z" />
<glyph unicode="J" glyph-name="J" d="M440 350L460 330V50Q450 10 410 0L380 80V290L440 350ZM390 0H90Q50 10 40 50L120 80H360L390 0ZM40 70V330L60 350L120 290V100L40 70ZM380 430V640L410 720Q450 710 460 670V390L440 370L380 430Z" />
<glyph unicode="K" glyph-name="K" d="M380 400L420 360L380 320H120L80 360L120 400H380ZM440 350L460 330V50Q450 10 410 0L380 80V290L440 350ZM140 480L380 720Q440 720 460 680L200 420H140V480ZM120 290V80L90 0Q50 10 40 50V330L60 350L120 290ZM60 370L40
390V670Q50 710 90 720L120 640V430L60 370Z" />
<glyph unicode="L" glyph-name="L" d="M120 290V80L90 0Q50 10 40 50V330L60 350L120 290ZM140 80H380L460 50Q450 10 410 0H110L140 80ZM60 370L40 390V670Q50 710 90 720L120 640V430L60 370Z" />
<glyph unicode="M" glyph-name="M" d="M290 390L250 350L210 390V620H290V390ZM440 350L460 330V50Q450 10 410 0L380 80V290L440 350ZM360 640H121L41 670Q51 710 91 720H390L360 640ZM120 620V430L60 370L40 390V650L120 620ZM380 430V640L410 720Q450 710 460
670V390L440 370L380 430ZM120 290V80L90 0Q50 10 40 50V330L60 350L120 290Z" />
<glyph unicode="N" glyph-name="N" d="M120 290V80L90 0Q50 10 40 50V330L60 350L120 290ZM360 420H290L140 570V630H200L360 470V420ZM440 350L460 330V50Q450 10 410 0L380 80V290L440 350ZM380 420V630L410 710Q450 700 460 660V380L440 360L380 420ZM60 360L40
380V660Q50 700 90 710L120 630V420L60 360Z" />
<glyph unicode="O" glyph-name="O" d="M360 640H140L100 680L140 720H360L400 680L360 640ZM380 430V640L410 670L460 620V390L440 370L380 430ZM440 350L460 330V100L410 50L380 80V290L440 350ZM60 370L40 390V620L90 670L120 640V430L60 370ZM400 40L360 0H140L100
40L140 80H360L400 40ZM120 290V80L90 50L40 100V330L60 350L120 290Z" />
<glyph unicode="P" glyph-name="P" d="M380 400L420 360L380 320H120L80 360L120 400H380ZM360 640H120L40 670V720H360L400 680L360 640ZM120 620V430L60 370L40 390V650L120 620ZM380 430V640L410 670L460 620V390L440 370L380 430ZM120 290V80L90 0Q50 10 40
50V330L60 350L120 290Z" />
<glyph unicode="Q" glyph-name="Q" d="M440 350L460 330V90L380 170V290L440 350ZM370 0H90Q50 10 40 50L120 80H290L370 0ZM40 70V330L60 350L120 290V100L40 70ZM360 640H121L41 670Q51 710 91 720H390L360 640ZM120 620V430L60 370L40 390V650L120 620ZM380
430V640L410 720Q450 710 460 670V390L440 370L380 430ZM280 180H340L470 50V-10H410L280 120V180Z" />
<glyph unicode="R" glyph-name="R" d="M380 400L420 360L380 320H120L80 360L120 400H380ZM140 300H200L460 40Q440 0 380 0L140 240V300ZM120 290V80L90 0Q50 10 40 50V330L60 350L120 290ZM360 640H121L41 670Q51 710 91 720H390L360 640ZM380 430V640L410 720Q450
710 460 670V390L440 370L380 430ZM120 620V430L60 370L40 390V650L120 620Z" />
<glyph unicode="S" glyph-name="S" d="M380 400L420 360L380 320H120L80 360L120 400H380ZM440 350L460 330V50Q450 10 410 0L380 80V290L440 350ZM390 0H90Q50 10 40 50L120 80H360L390 0ZM120 620V430L60 370L40 390V650L120 620ZM121 640L41 670Q51 710 91
720H410Q450 710 460 670L380 640H121Z" />
<glyph unicode="T" glyph-name="T" d="M250 350L290 310V50Q280 10 240 0L210 80V310L250 350ZM210 410V620H290V410L250 370L210 410ZM121 640L41 670Q51 710 91 720H410Q450 710 460 670L380 640H121Z" />
<glyph unicode="U" glyph-name="U" d="M440 350L460 330V50Q450 10 410 0L380 80V290L440 350ZM390 0H90Q50 10 40 50L120 80H360L390 0ZM40 70V330L60 350L120 290V100L40 70ZM380 430V640L410 720Q450 710 460 670V390L440 370L380 430ZM60 360L40 380V660Q50
700 90 710L120 630V420L60 360Z" />
<glyph unicode="V" glyph-name="V" d="M60 360L40 380V660Q50 700 90 710L120 630V420L60 360ZM380 420V630L410 710Q450 700 460 660V380L440 360L380 420ZM240 120V0L40 260V320L60 340L120 280L240 120ZM380 280L440 340L460 320V260L260 0V120L380 280Z" />
<glyph unicode="W" glyph-name="W" d="M290 100H210V330L250 370L290 330V100ZM380 430V640L410 720Q450 710 460 670V390L440 370L380 430ZM390 0H91Q51 10 41 50L121 80H360L390 0ZM40 70V330L60 350L120 290V100L40 70ZM440 350L460 330V50Q450 10 410 0L380
80V290L440 350ZM60 370L40 390V670Q50 710 90 720L120 640V430L60 370Z" />
<glyph unicode="X" glyph-name="X" d="M260 350H305L459 40Q439 0 379 0L260 242V350ZM261 478L380 720Q440 720 460 680L306 370H261V478ZM239 242L120 0Q60 0 40 40L194 350H239V242ZM240 370H195L41 680Q61 720 121 720L240 477V370Z" />
<glyph unicode="Y" glyph-name="Y" d="M380 400L420 360L380 320H120L80 360L120 400H380ZM440 350L460 330V50Q450 10 410 0L380 80V290L440 350ZM390 0H90Q50 10 40 50L120 80H360L390 0ZM120 650V430L60 370L40 390V680L120 650ZM380 430V640L410 720Q450 710
460 670V390L440 370L380 430Z" />
<glyph unicode="Z" glyph-name="Z" d="M420 0H140L180 80H390L420 0ZM320 640H121L41 670Q51 710 91 720H360L320 640ZM250 430L380 720Q440 720 460 680L310 370H250V430ZM260 290L120 0Q60 0 40 40L200 350H260V290Z" />
<glyph unicode="[" glyph-name="bracketleft" d="M40 70V330L60 350L120 290V100L40 70ZM190 640H121L41 670Q51 710 91 720H230L250 700L190 640ZM120 620V430L60 370L40 390V650L120 620ZM250 20L230 0H91Q51 10 41 50L121 80H190L250 20Z" />
<glyph unicode="\" glyph-name="backslash" d="M260 350H305L459 40Q439 0 379 0L260 242V350ZM240 370H195L41 680Q61 720 121 720L240 477V370Z" />
<glyph unicode="]" glyph-name="bracketright" d="M440 350L460 330V50Q450 10 410 0L380 80V290L440 350ZM360 640H310L250 700L270 720H390L360 640ZM380 430V640L410 720Q450 710 460 670V390L440 370L380 430ZM390 0H270L250 20L310 80H360L390 0Z" />
<glyph unicode="^" glyph-name="asciicircum" d="M259 610V720L459 520V480L420 450L259 610ZM79 450L40 480V520L240 720L239 610L79 450Z" />
<glyph unicode="_" glyph-name="underscore" d="M379 80L459 50Q449 10 409 0H90Q50 10 40 50L120 80H379Z" />
<glyph unicode="`" glyph-name="grave" d="M340 610V570L300 560L160 700L170 740H210L340 610Z" />
<glyph unicode="a" glyph-name="a" d="M380 400L420 360L380 320H120L80 360L120 400H380ZM440 350L460 330V50Q450 10 410 0L380 80V290L440 350ZM360 640H121L41 670Q51 710 91 720H390L360 640ZM120 620V430L60 370L40 390V650L120 620ZM380 430V640L410 720Q450
710 460 670V390L440 370L380 430ZM120 290V80L90 0Q50 10 40 50V330L60 350L120 290Z" />
<glyph unicode="b" glyph-name="b" d="M380 400L420 360L380 320H120L80 360L120 400H380ZM40 70V330L60 350L120 290V100L40 70ZM360 640H120L40 670V720H360L400 680L360 640ZM120 620V430L60 370L40 390V650L120 620ZM380 430V640L410 670L460 620V390L440
370L380 430ZM440 350L460 330V100L410 50L380 80V290L440 350ZM399 40L359 0H40V50L120 80H359L399 40Z" />
<glyph unicode="c" glyph-name="c" d="M420 0H90Q50 10 40 50L120 80H390L420 0ZM40 70V330L60 350L120 290V100L40 70ZM390 640H121L41 670Q51 710 91 720H420L390 640ZM120 620V430L60 370L40 390V650L120 620Z" />
<glyph unicode="d" glyph-name="d" d="M40 70V330L60 350L120 290V100L40 70ZM360 640H120L40 670V720H360L400 680L360 640ZM120 620V430L60 370L40 390V650L120 620ZM380 430V640L410 670L460 620V390L440 370L380 430ZM440 350L460 330V100L410 50L380 80V290L440
350ZM399 40L359 0H40V50L120 80H359L399 40Z" />
<glyph unicode="e" glyph-name="e" d="M380 400L420 360L380 320H120L80 360L120 400H380ZM420 0H90Q50 10 40 50L120 80H390L420 0ZM40 70V330L60 350L120 290V100L40 70ZM390 640H121L41 670Q51 710 91 720H420L390 640ZM120 620V430L60 370L40 390V650L120 620Z" />
<glyph unicode="f" glyph-name="f" d="M380 400L420 360L380 320H120L80 360L120 400H380ZM390 640H121L41 670Q51 710 91 720H420L390 640ZM120 620V430L60 370L40 390V650L120 620ZM120 290V80L90 0Q50 10 40 50V330L60 350L120 290Z" />
<glyph unicode="g" glyph-name="g" d="M380 400L420 360L380 320H290L250 360L290 400H380ZM440 350L460 330V50Q450 10 410 0L380 80V290L440 350ZM390 0H90Q50 10 40 50L120 80H360L390 0ZM40 70V330L60 350L120 290V100L40 70ZM390 640H121L41 670Q51 710 91
720H420L390 640ZM120 620V430L60 370L40 390V650L120 620Z" />
<glyph unicode="h" glyph-name="h" d="M380 400L420 360L380 320H120L80 360L120 400H380ZM440 350L460 330V50Q450 10 410 0L380 80V290L440 350ZM380 430V640L410 720Q450 710 460 670V390L440 370L380 430ZM120 290V80L90 0Q50 10 40 50V330L60 350L120 290ZM60
360L40 380V660Q50 700 90 710L120 630V420L60 360Z" />
<glyph unicode="i" glyph-name="i" d="M200 430V640L230 720Q270 710 280 670V390L260 370L200 430ZM260 360L280 340V60Q270 20 230 10L200 90V300L260 360Z" />
<glyph unicode="j" glyph-name="j" d="M440 350L460 330V50Q450 10 410 0L380 80V290L440 350ZM390 0H90Q50 10 40 50L120 80H360L390 0ZM40 70V330L60 350L120 290V100L40 70ZM380 430V640L410 720Q450 710 460 670V390L440 370L380 430Z" />
<glyph unicode="k" glyph-name="k" d="M380 400L420 360L380 320H120L80 360L120 400H380ZM440 350L460 330V50Q450 10 410 0L380 80V290L440 350ZM140 480L380 720Q440 720 460 680L200 420H140V480ZM120 290V80L90 0Q50 10 40 50V330L60 350L120 290ZM60 370L40
390V670Q50 710 90 720L120 640V430L60 370Z" />
<glyph unicode="l" glyph-name="l" d="M120 290V80L90 0Q50 10 40 50V330L60 350L120 290ZM140 80H380L460 50Q450 10 410 0H110L140 80ZM60 370L40 390V670Q50 710 90 720L120 640V430L60 370Z" />
<glyph unicode="m" glyph-name="m" d="M290 390L250 350L210 390V620H290V390ZM440 350L460 330V50Q450 10 410 0L380 80V290L440 350ZM360 640H121L41 670Q51 710 91 720H390L360 640ZM120 620V430L60 370L40 390V650L120 620ZM380 430V640L410 720Q450 710 460
670V390L440 370L380 430ZM120 290V80L90 0Q50 10 40 50V330L60 350L120 290Z" />
<glyph unicode="n" glyph-name="n" d="M120 290V80L90 0Q50 10 40 50V330L60 350L120 290ZM360 420H290L140 570V630H200L360 470V420ZM440 350L460 330V50Q450 10 410 0L380 80V290L440 350ZM380 420V630L410 710Q450 700 460 660V380L440 360L380 420ZM60 360L40
380V660Q50 700 90 710L120 630V420L60 360Z" />
<glyph unicode="o" glyph-name="o" d="M360 640H140L100 680L140 720H360L400 680L360 640ZM380 430V640L410 670L460 620V390L440 370L380 430ZM440 350L460 330V100L410 50L380 80V290L440 350ZM60 370L40 390V620L90 670L120 640V430L60 370ZM400 40L360 0H140L100
40L140 80H360L400 40ZM120 290V80L90 50L40 100V330L60 350L120 290Z" />
<glyph unicode="p" glyph-name="p" d="M380 400L420 360L380 320H120L80 360L120 400H380ZM360 640H120L40 670V720H360L400 680L360 640ZM120 620V430L60 370L40 390V650L120 620ZM380 430V640L410 670L460 620V390L440 370L380 430ZM120 290V80L90 0Q50 10 40
50V330L60 350L120 290Z" />
<glyph unicode="q" glyph-name="q" d="M440 350L460 330V90L380 170V290L440 350ZM370 0H90Q50 10 40 50L120 80H290L370 0ZM40 70V330L60 350L120 290V100L40 70ZM360 640H121L41 670Q51 710 91 720H390L360 640ZM120 620V430L60 370L40 390V650L120 620ZM380
430V640L410 720Q450 710 460 670V390L440 370L380 430ZM280 180H340L470 50V-10H410L280 120V180Z" />
<glyph unicode="r" glyph-name="r" d="M380 400L420 360L380 320H120L80 360L120 400H380ZM140 300H200L460 40Q440 0 380 0L140 240V300ZM120 290V80L90 0Q50 10 40 50V330L60 350L120 290ZM360 640H121L41 670Q51 710 91 720H390L360 640ZM380 430V640L410 720Q450
710 460 670V390L440 370L380 430ZM120 620V430L60 370L40 390V650L120 620Z" />
<glyph unicode="s" glyph-name="s" d="M380 400L420 360L380 320H120L80 360L120 400H380ZM440 350L460 330V50Q450 10 410 0L380 80V290L440 350ZM390 0H90Q50 10 40 50L120 80H360L390 0ZM120 620V430L60 370L40 390V650L120 620ZM121 640L41 670Q51 710 91
720H410Q450 710 460 670L380 640H121Z" />
<glyph unicode="t" glyph-name="t" d="M250 350L290 310V50Q280 10 240 0L210 80V310L250 350ZM210 410V620H290V410L250 370L210 410ZM121 640L41 670Q51 710 91 720H410Q450 710 460 670L380 640H121Z" />
<glyph unicode="u" glyph-name="u" d="M440 350L460 330V50Q450 10 410 0L380 80V290L440 350ZM390 0H90Q50 10 40 50L120 80H360L390 0ZM40 70V330L60 350L120 290V100L40 70ZM380 430V640L410 720Q450 710 460 670V390L440 370L380 430ZM60 360L40 380V660Q50
700 90 710L120 630V420L60 360Z" />
<glyph unicode="v" glyph-name="v" d="M60 360L40 380V660Q50 700 90 710L120 630V420L60 360ZM380 420V630L410 710Q450 700 460 660V380L440 360L380 420ZM240 120V0L40 260V320L60 340L120 280L240 120ZM380 280L440 340L460 320V260L260 0V120L380 280Z" />
<glyph unicode="w" glyph-name="w" d="M290 100H210V330L250 370L290 330V100ZM380 430V640L410 720Q450 710 460 670V390L440 370L380 430ZM390 0H91Q51 10 41 50L121 80H360L390 0ZM40 70V330L60 350L120 290V100L40 70ZM440 350L460 330V50Q450 10 410 0L380
80V290L440 350ZM60 370L40 390V670Q50 710 90 720L120 640V430L60 370Z" />
<glyph unicode="x" glyph-name="x" d="M260 350H305L459 40Q439 0 379 0L260 242V350ZM261 478L380 720Q440 720 460 680L306 370H261V478ZM239 242L120 0Q60 0 40 40L194 350H239V242ZM240 370H195L41 680Q61 720 121 720L240 477V370Z" />
<glyph unicode="y" glyph-name="y" d="M380 400L420 360L380 320H120L80 360L120 400H380ZM440 350L460 330V50Q450 10 410 0L380 80V290L440 350ZM390 0H90Q50 10 40 50L120 80H360L390 0ZM120 650V430L60 370L40 390V680L120 650ZM380 430V640L410 720Q450 710
460 670V390L440 370L380 430Z" />
<glyph unicode="z" glyph-name="z" d="M420 0H140L180 80H390L420 0ZM320 640H121L41 670Q51 710 91 720H360L320 640ZM250 430L380 720Q440 720 460 680L310 370H250V430ZM260 290L120 0Q60 0 40 40L200 350H260V290Z" />
<glyph unicode="{" glyph-name="braceleft" d="M150 70V290L210 350L230 330V100L150 70ZM300 640H231L151 670Q161 710 201 720H340L360 700L300 640ZM230 620V390L210 370L150 430V650L230 620ZM360 20L340 0H201Q161 10 151 50L231 80H300L360 20ZM140 400L180
360L140 320H70L30 360L70 400H140Z" />
<glyph unicode="|" glyph-name="bar" d="M120 50Q110 10 70 0L40 80V640L70 720Q110 710 120 670V50Z" />
<glyph unicode="}" glyph-name="braceright" d="M210 100V330L230 350L290 290V70L210 100ZM80 700L100 720H239Q279 710 289 670L209 640H140L80 700ZM290 650V430L230 370L210 390V620L290 650ZM140 80H209L289 50Q279 10 239 0H100L80 20L140 80ZM370 400L410
360L370 320H300L260 360L300 400H370Z" />
<glyph unicode="~" glyph-name="asciitilde" d="M270 480L310 440L270 400H230L190 440L230 480H270ZM110 479L150 439L110 399H70L30 439L70 479H110ZM430 480L470 440L430 400H390L350 440L390 480H430ZM190 540L230 500L190 460H150L110 500L150 540H190ZM350
410L390 370L350 330H310L270 370L310 410H350Z" />
</font>
</defs>
</svg>
